<?xml version="1.0" encoding="UTF-8"?>
<svg id="svg2" xmlns="http://www.w3.org/2000/svg" version="1.1" viewBox="0 0 148.8 143.2">
  <defs>
    <style>
      .cls-1 {
        fill: #c00;
        stroke: #c00;
      }

      .cls-1, .cls-2, .cls-3 {
        stroke-miterlimit: 9.2;
        stroke-width: .9px;
      }

      .cls-4 {
        fill: #71a416;
        stroke-width: 0px;
      }

      .cls-2 {
        fill: #39f;
        stroke: #39f;
      }

      .cls-3 {
        fill: #f90;
        stroke: #f90;
      }
    </style>
  </defs>
  <g id="agerix">
    <g id="petales">
      <path id="orange" class="cls-3" d="M82.6,57.4c9.4-21.6-15.6-52.8-31.5-55.9-7.3,15.4,11.3,51.4,31.5,55.9Z"/>
      <path id="rouge" class="cls-1" d="M64.2,78.9c-3.4-23.2-41.1-36.6-56.3-30.8,1.9,17,36.7,37.7,56.3,30.8Z"/>
      <path id="bleu" class="cls-2" d="M61.6,104.7C42.8,90.6,6.7,107.7,0,122.6c13.4,10.6,52.7.8,61.6-17.9Z"/>
      <g id="lettre-a">
        <path class="cls-4" d="M148.8,105.5v37.7h-38.4c-10.5,0-19.5-3.7-27-11-7.5-7.4-11.3-16.3-11.3-26.8s3.8-19.4,11.3-26.8c7.6-7.4,16.6-11.2,27-11.2s19.5,3.7,27,11.2c7.7,7.5,11.4,16.4,11.4,26.9h0ZM132.8,128.2v-22.7c0-6.2-2.2-11.6-6.5-16.1s-9.6-6.8-15.8-6.8-11.5,2.3-15.9,6.8c-4.3,4.5-6.4,9.8-6.4,16.1s2.1,11.6,6.4,16.1c4.3,4.4,9.6,6.6,15.9,6.6h22.3Z"/>
      </g>
    </g>
  </g>
</svg>